<?xml version="1.0" encoding="UTF-8" standalone="no"?>
<svg width="18px" height="18px" viewBox="0 0 18 18" version="1.1" xmlns="http://www.w3.org/2000/svg" xmlns:xlink="http://www.w3.org/1999/xlink" xmlns:sketch="http://www.bohemiancoding.com/sketch/ns">
    <!-- Generator: Sketch 3.1.1 (8761) - http://www.bohemiancoding.com/sketch -->
    <title>Event time</title>
    <desc>Event time</desc>
    <defs></defs>
    <g id="ICONS" stroke="none" stroke-width="1" fill="none" fill-rule="evenodd" sketch:type="MSPage">
        <g id="Resources-light" sketch:type="MSArtboardGroup" transform="translate(-52.000000, -653.000000)" fill="#4B8232">
            <g id="Group" sketch:type="MSLayerGroup" transform="translate(53.000000, 654.000000)">
                <path d="M0,2.99850233 L0,14.0014977 C0,14.5529553 0.454708934,15 0.999960201,15 L16.0000398,15 C16.5523026,15 17,14.5525106 17,14.0014977 L17,2.99850233 C17,2.44704472 16.5452911,2 16.0000398,2 L0.999960201,2 C0.447697432,2 0,2.44748943 0,2.99850233 Z M2.0000398,6.00116472 L15,6 L15,13.0014977 L2,13.0014977 L2.0000398,6.00116472 Z" id="Rectangle-2" sketch:type="MSShapeGroup"></path>
                <rect id="Rectangle-241-2" sketch:type="MSShapeGroup" x="3" y="7" width="2" height="2"></rect>
                <rect id="Rectangle-242-2" sketch:type="MSShapeGroup" x="6" y="7" width="2" height="2"></rect>
                <rect id="Rectangle-243-2" sketch:type="MSShapeGroup" x="6" y="10" width="2" height="2"></rect>
                <rect id="Rectangle-243-3" sketch:type="MSShapeGroup" x="3" y="10" width="2" height="2"></rect>
                <rect id="Rectangle-247-4" sketch:type="MSShapeGroup" x="9" y="7" width="2" height="2"></rect>
                <rect id="Rectangle-246-4" sketch:type="MSShapeGroup" x="9" y="10" width="2" height="2"></rect>
                <rect id="Rectangle-247-3" sketch:type="MSShapeGroup" x="12" y="7" width="2" height="2"></rect>
                <rect id="Rectangle-246-3" sketch:type="MSShapeGroup" x="12" y="10" width="2" height="2"></rect>
                <rect id="Rectangle-89" sketch:type="MSShapeGroup" x="3" y="0" width="2" height="3"></rect>
                <rect id="Rectangle-88" sketch:type="MSShapeGroup" x="12" y="0" width="2" height="3"></rect>
            </g>
        </g>
    </g>
</svg>